<?xml version="1.0" encoding="UTF-8"?><svg id="_レイヤー_1" xmlns="http://www.w3.org/2000/svg" width="163.28" height="114.3" viewBox="0 0 163.28 114.3"><defs><style>.cls-1{fill:#fff;}.cls-2{fill:red;}</style></defs><path class="cls-2" d="M159.87,17.85c-1.88-7.03-7.41-12.55-14.44-14.44C132.7,0,81.64,0,81.64,0c0,0-51.06,0-63.79,3.41-7.03,1.88-12.55,7.41-14.44,14.44C0,30.58,0,57.15,0,57.15c0,0,0,26.57,3.41,39.3,1.88,7.03,7.41,12.55,14.44,14.44,12.73,3.41,63.79,3.41,63.79,3.41,0,0,51.06,0,63.79-3.41,7.03-1.88,12.55-7.41,14.44-14.44,3.41-12.73,3.41-39.3,3.41-39.3,0,0-.01-26.57-3.41-39.3Z"/><polygon class="cls-1" points="77.61 74.63 65.1 81.73 65.07 57.96 70.09 60.84 70.1 73.1 72.59 71.71 72.59 59.44 65.07 55.05 65.06 32.52 77.58 39.79 77.59 53.7 72.58 50.81 72.56 42.63 70.07 41.23 70.08 52.21 77.6 56.58 77.61 74.63"/><path class="cls-1" d="M94.95,62.27l.09,2.45-14.92,8.48-.03-5.75,9.3-5.28c.07-.33.08-.72.04-1.06l-2.24-1.3-7.08,4.02-.02-5.75,14.63-8.32,4.98,2.91-7.52,4.29,1.76,1.06,3.29-.17,5.63-3.35,5.01,2.92-7.67,4.36-5.25.47Z"/><polygon class="cls-1" points="92.6 48.53 80.36 55.48 80.35 41.42 92.6 48.53"/></svg>